{
  "asset": {
    "generator": "glTF-Transform v4.5.0",
    "version": "2.0"
  },
  "accessors": [
    {
      "type": "SCALAR",
      "componentType": 5123,
      "count": 2520,
      "bufferView": 0,
      "byteOffset": 0
    },
    {
      "type": "SCALAR",
      "componentType": 5123,
      "count": 46203,
      "bufferView": 0,
      "byteOffset": 5040
    },
    {
      "type": "SCALAR",
      "componentType": 5123,
      "count": 6162,
      "bufferView": 0,
      "byteOffset": 97448
    },
    {
      "type": "SCALAR",
      "componentType": 5123,
      "count": 38163,
      "bufferView": 0,
      "byteOffset": 109772
    },
    {
      "type": "VEC3",
      "componentType": 5126,
      "count": 700,
      "max": [
        0.13569629192352295,
        1.2668092250823975,
        0.1757177859544754
      ],
      "min": [
        -0.23339197039604187,
        0.41102948784828186,
        -0.21713386476039886
      ],
      "bufferView": 1,
      "byteOffset": 0
    },
    {
      "type": "VEC3",
      "componentType": 5126,
      "count": 700,
      "bufferView": 1,
      "byteOffset": 12
    },
    {
      "type": "VEC2",
      "componentType": 5126,
      "count": 700,
      "bufferView": 1,
      "byteOffset": 24
    },
    {
      "type": "VEC3",
      "componentType": 5126,
      "count": 12244,
      "max": [
        0.2112395167350769,
        0.5428022146224976,
        0.21265316009521484
      ],
      "min": [
        -0.21813175082206726,
        0.48130929470062256,
        -0.21738101541996002
      ],
      "bufferView": 2,
      "byteOffset": 0
    },
    {
      "type": "VEC3",
      "componentType": 5126,
      "count": 12244,
      "bufferView": 2,
      "byteOffset": 12
    },
    {
      "type": "VEC2",
      "componentType": 5126,
      "count": 12244,
      "bufferView": 2,
      "byteOffset": 24
    },
    {
      "type": "VEC3",
      "componentType": 5126,
      "count": 1455,
      "max": [
        0.23252755403518677,
        0.53143310546875,
        0.232527494430542
      ],
      "min": [
        -0.23252752423286438,
        0.00019317727128509432,
        -0.23310253024101257
      ],
      "bufferView": 3,
      "byteOffset": 0
    },
    {
      "type": "VEC3",
      "componentType": 5126,
      "count": 1455,
      "bufferView": 3,
      "byteOffset": 12
    },
    {
      "type": "VEC2",
      "componentType": 5126,
      "count": 1455,
      "bufferView": 3,
      "byteOffset": 24
    },
    {
      "type": "VEC3",
      "componentType": 5126,
      "count": 11840,
      "max": [
        0.24901919066905975,
        1.3360412120819092,
        0.2698860168457031
      ],
      "min": [
        -0.3380559980869293,
        0.5832836627960205,
        -0.36367878317832947
      ],
      "bufferView": 4,
      "byteOffset": 0
    },
    {
      "type": "VEC3",
      "componentType": 5126,
      "count": 11840,
      "bufferView": 4,
      "byteOffset": 12
    },
    {
      "type": "VEC2",
      "componentType": 5126,
      "count": 11840,
      "bufferView": 4,
      "byteOffset": 24
    }
  ],
  "bufferViews": [
    {
      "buffer": 0,
      "byteOffset": 0,
      "byteLength": 186100,
      "target": 34963
    },
    {
      "buffer": 0,
      "byteOffset": 186100,
      "byteLength": 22400,
      "byteStride": 32,
      "target": 34962
    },
    {
      "buffer": 0,
      "byteOffset": 208500,
      "byteLength": 391808,
      "byteStride": 32,
      "target": 34962
    },
    {
      "buffer": 0,
      "byteOffset": 600308,
      "byteLength": 46560,
      "byteStride": 32,
      "target": 34962
    },
    {
      "buffer": 0,
      "byteOffset": 646868,
      "byteLength": 378880,
      "byteStride": 32,
      "target": 34962
    }
  ],
  "samplers": [
    {
      "magFilter": 9729,
      "minFilter": 9987,
      "wrapS": 10497,
      "wrapT": 10497
    }
  ],
  "textures": [
    {
      "source": 1,
      "sampler": 0
    },
    {
      "source": 0,
      "sampler": 0
    },
    {
      "source": 2,
      "sampler": 0
    },
    {
      "source": 4,
      "sampler": 0
    },
    {
      "source": 3,
      "sampler": 0
    },
    {
      "source": 5,
      "sampler": 0
    }
  ],
  "images": [
    {
      "name": "potted_plant_01_pot_nor_gl",
      "mimeType": "image/jpeg",
      "uri": "textures/potted_plant_01_pot_nor_gl_1k.jpg"
    },
    {
      "name": "potted_plant_01_pot_diff",
      "mimeType": "image/jpeg",
      "uri": "textures/potted_plant_01_pot_diff_1k.jpg"
    },
    {
      "name": "potted_plant_01_pot_rough",
      "mimeType": "image/jpeg",
      "uri": "textures/potted_plant_01_pot_rough_1k.jpg"
    },
    {
      "name": "potted_plant_01_leaves_nor_gl.png",
      "mimeType": "image/jpeg",
      "uri": "textures/potted_plant_01_leaves_nor_gl_1k.jpg"
    },
    {
      "name": "potted_plant_01_leaves_diff.png",
      "mimeType": "image/jpeg",
      "uri": "textures/potted_plant_01_leaves_diff_1k.jpg"
    },
    {
      "name": "potted_plant_01_leaves_rough.png",
      "mimeType": "image/jpeg",
      "uri": "textures/potted_plant_01_leaves_rough_1k.jpg"
    }
  ],
  "buffers": [
    {
      "uri": "potted_plant_01.bin",
      "byteLength": 1025748
    }
  ],
  "materials": [
    {
      "name": "potted_plant_01_pot",
      "doubleSided": true,
      "pbrMetallicRoughness": {
        "metallicFactor": 0,
        "baseColorTexture": {
          "index": 0
        },
        "metallicRoughnessTexture": {
          "index": 2
        }
      },
      "normalTexture": {
        "index": 1
      }
    },
    {
      "name": "potted_plant_01_leaves",
      "alphaMode": "MASK",
      "alphaCutoff": 0.5,
      "doubleSided": true,
      "pbrMetallicRoughness": {
        "metallicFactor": 0,
        "baseColorTexture": {
          "index": 3
        },
        "metallicRoughnessTexture": {
          "index": 5
        }
      },
      "normalTexture": {
        "index": 4
      }
    }
  ],
  "meshes": [
    {
      "name": "potted_plant_01_base_low",
      "primitives": [
        {
          "attributes": {
            "POSITION": 4,
            "NORMAL": 5,
            "TEXCOORD_0": 6
          },
          "mode": 4,
          "material": 0,
          "indices": 0
        }
      ]
    },
    {
      "name": "Circle.008",
      "primitives": [
        {
          "attributes": {
            "POSITION": 7,
            "NORMAL": 8,
            "TEXCOORD_0": 9
          },
          "mode": 4,
          "material": 0,
          "indices": 1
        }
      ]
    },
    {
      "name": "Circle.002",
      "primitives": [
        {
          "attributes": {
            "POSITION": 10,
            "NORMAL": 11,
            "TEXCOORD_0": 12
          },
          "mode": 4,
          "material": 0,
          "indices": 2
        }
      ]
    },
    {
      "name": "Plane.070",
      "primitives": [
        {
          "attributes": {
            "POSITION": 13,
            "NORMAL": 14,
            "TEXCOORD_0": 15
          },
          "mode": 4,
          "material": 1,
          "indices": 3
        }
      ]
    }
  ],
  "nodes": [
    {
      "name": "potted_plant_01_stem",
      "mesh": 0
    },
    {
      "name": "potted_plant_01_pebbles",
      "translation": [
        0,
        -0.013706685975193977,
        0
      ],
      "scale": [
        1.0021867752075195,
        1.0021867752075195,
        1.0021867752075195
      ],
      "mesh": 1
    },
    {
      "name": "potted_plant_01_pot",
      "mesh": 2
    },
    {
      "name": "potted_plant_01_leaves",
      "mesh": 3
    }
  ],
  "scenes": [
    {
      "name": "Scene",
      "nodes": [
        0,
        1,
        2,
        3
      ]
    }
  ],
  "scene": 0
}